<svg width="52" height="52" viewBox="0 0 52 52" fill="none" xmlns="http://www.w3.org/2000/svg">
<path d="M21.875 9.97827H2V6.22827H21.875V9.97827ZM18.125 13.7283H2V17.4783H18.125V13.7283ZM14.375 21.2283H2V24.9783H14.375V21.2283ZM50 42.1345H42.1774C41.4036 44.3168 39.3195 45.8845 36.875 45.8845C34.4305 45.8845 32.3464 44.3168 31.5726 42.1345H19.9586C19.1848 44.3168 17.1007 45.8845 14.6562 45.8845C12.2118 45.8845 10.1277 44.3168 9.35388 42.1345H7.625C4.52319 42.1345 2 39.611 2 36.5095V28.7283H5.75V36.5095C5.75 37.5433 6.59119 38.3845 7.625 38.3845H9.35388C10.1277 36.2019 12.2118 34.6345 14.6562 34.6345C17.1007 34.6345 19.1848 36.2019 19.9586 38.3845H31.25V11.8438C31.25 10.8099 30.4088 9.96875 29.375 9.96875H25.625V6.21875H29.375C32.4768 6.21875 35 8.74194 35 11.8438V15.6033H38.757C40.5115 15.6033 42.1902 16.4393 43.2471 17.8397L48.4865 24.782C49.4624 26.0751 50 27.6798 50 29.2999V42.1345ZM35 19.3533V26.3845H44.9976L40.2537 20.0985C39.9014 19.6316 39.3418 19.3533 38.757 19.3533H35ZM16.5312 40.2595C16.5312 39.2253 15.6901 38.3845 14.6562 38.3845C13.6224 38.3845 12.7812 39.2253 12.7812 40.2595C12.7812 41.2933 13.6224 42.1345 14.6562 42.1345C15.6901 42.1345 16.5312 41.2933 16.5312 40.2595ZM38.75 40.2595C38.75 39.2253 37.9088 38.3845 36.875 38.3845C35.8412 38.3845 35 39.2253 35 40.2595C35 41.2933 35.8412 42.1345 36.875 42.1345C37.9088 42.1345 38.75 41.2933 38.75 40.2595ZM46.25 38.3845V30.1345H35V34.9568C35.587 34.7488 36.2177 34.6345 36.875 34.6345C39.3195 34.6345 41.4036 36.2019 42.1774 38.3845H46.25Z" fill="white"/>
</svg>
