<svg width="52" height="52" viewBox="0 0 52 52" fill="none" xmlns="http://www.w3.org/2000/svg">
<path d="M39.0848 12.1822L36.7692 15.157C41.7607 19.041 44.2505 25.3291 43.2678 31.5691C42.5479 36.1479 40.0876 40.1723 36.3406 42.9017C32.5924 45.6295 28.0074 46.7383 23.4286 46.0147C13.9764 44.5264 7.49537 35.6259 8.98118 26.173C9.70105 21.5937 12.1621 17.5691 15.9096 14.8404C19.1814 12.4586 23.0912 11.3147 27.0782 11.5416L23.8195 14.9603L26.2369 17.2673L31.381 11.8668L31.3823 11.8688L33.6868 9.44887L31.2711 7.14435L31.2698 7.1451L25.8713 2L23.5651 4.41995L27.0826 7.77034C22.301 7.54417 17.6174 8.9351 13.6913 11.7938C9.13006 15.1149 6.13515 20.0133 5.25823 25.5879C3.4494 37.0932 11.3372 47.9281 22.8425 49.7387C23.9545 49.914 25.066 50 26.1703 50C30.602 50 34.9081 48.6071 38.5589 45.9483C43.1206 42.6267 46.115 37.7283 46.992 32.1549C48.1882 24.5614 45.1581 16.9079 39.0848 12.1822Z" fill="white"/>
<path d="M28.1944 39.6458V39.6451H28.1947V37.4758C30.7667 37.1887 33.2692 35.564 33.2692 32.4794C33.2692 28.2882 29.3721 27.8077 26.5255 27.4571C24.7056 27.2397 23.3126 26.9872 23.3126 25.8846C23.3126 24.3518 25.4732 24.1865 26.4024 24.1865C27.7815 24.1865 29.2529 24.8348 29.7528 25.6622L29.898 25.9027L32.7571 24.5797L32.6157 24.2913C31.5503 22.1131 29.6408 21.4829 28.1939 21.2285V19.3186H24.846V21.2204C21.7292 21.6801 19.8783 23.4099 19.8783 25.8846C19.8783 29.92 23.5423 30.3294 26.2154 30.6292C28.5977 30.9101 29.7067 31.4987 29.7067 32.4794C29.7067 34.3529 27.1121 34.4993 26.3167 34.4993C24.5463 34.4993 22.8393 33.6159 22.3456 32.443L22.2229 32.1534L19.1168 33.4702L19.2407 33.7598C20.1604 35.9127 22.1452 37.2618 24.8465 37.5809V39.6458H28.1944Z" fill="white"/>
</svg>
