<svg width="52" height="52" viewBox="0 0 52 52" fill="none" xmlns="http://www.w3.org/2000/svg">
<g clip-path="url(#clip0_1_107)">
<path d="M35.4375 15.1562H18.5625C17.7859 15.1562 17.1562 15.7859 17.1562 16.5625V33.4375C17.1562 34.2141 17.7859 34.8438 18.5625 34.8438H35.4375C36.2141 34.8438 36.8438 34.2141 36.8438 33.4375V16.5625C36.8438 15.7859 36.2141 15.1562 35.4375 15.1562ZM25.5938 17.9688H28.4062V20.7812H25.5938V17.9688ZM34.0312 32.0312H19.9688V17.9688H22.7812V22.1875C22.7812 22.9641 23.4109 23.5938 24.1875 23.5938H29.8125C30.5891 23.5938 31.2188 22.9641 31.2188 22.1875V17.9688H34.0312V32.0312Z" fill="white"/>
<path d="M49.5938 23.5938H45.2277C44.5428 14.6321 37.3679 7.45722 28.4062 6.77228V2.40625C28.4062 1.62962 27.7766 1 27 1C26.2234 1 25.5938 1.62962 25.5938 2.40625V6.77228C16.6321 7.45722 9.45722 14.6321 8.77228 23.5938H4.40625C3.62962 23.5938 3 24.2234 3 25C3 25.7766 3.62962 26.4062 4.40625 26.4062H8.77228C9.45722 35.3679 16.6321 42.5428 25.5938 43.2277V47.5938C25.5938 48.3704 26.2234 49 27 49C27.7766 49 28.4062 48.3704 28.4062 47.5938V43.2277C37.3679 42.5428 44.5428 35.3679 45.2277 26.4062H49.5938C50.3704 26.4062 51 25.7766 51 25C51 24.2234 50.3704 23.5938 49.5938 23.5938ZM28.4062 40.4042V39.0625C28.4062 38.2859 27.7766 37.6562 27 37.6562C26.2234 37.6562 25.5938 38.2859 25.5938 39.0625V40.4042C18.1842 39.7332 12.2668 33.8158 11.5958 26.4062H12.9375C13.7141 26.4062 14.3438 25.7766 14.3438 25C14.3438 24.2234 13.7141 23.5938 12.9375 23.5938H11.5958C12.2668 16.1842 18.1842 10.2668 25.5938 9.59584V10.9375C25.5938 11.7141 26.2234 12.3438 27 12.3438C27.7766 12.3438 28.4062 11.7141 28.4062 10.9375V9.59584C35.8158 10.2668 41.7332 16.1842 42.4042 23.5938H41.0625C40.2859 23.5938 39.6562 24.2234 39.6562 25C39.6562 25.7766 40.2859 26.4062 41.0625 26.4062H42.4042C41.7332 33.8158 35.8158 39.7332 28.4062 40.4042Z" fill="white"/>
<path d="M7.3125 12.3438C8.08913 12.3438 8.71875 11.7141 8.71875 10.9375V6.71875H12.9375C13.7141 6.71875 14.3438 6.08913 14.3438 5.3125C14.3438 4.53587 13.7141 3.90625 12.9375 3.90625H7.3125C6.53587 3.90625 5.90625 4.53587 5.90625 5.3125V10.9375C5.90625 11.7141 6.53587 12.3438 7.3125 12.3438Z" fill="white"/>
<path d="M12.9375 43.2812H8.71875V39.0625C8.71875 38.2859 8.08913 37.6562 7.3125 37.6562C6.53587 37.6562 5.90625 38.2859 5.90625 39.0625V44.6875C5.90625 45.4641 6.53587 46.0938 7.3125 46.0938H12.9375C13.7141 46.0938 14.3438 45.4641 14.3438 44.6875C14.3438 43.9109 13.7141 43.2812 12.9375 43.2812Z" fill="white"/>
<path d="M46.6875 37.6562C45.9109 37.6562 45.2812 38.2859 45.2812 39.0625V43.2812H41.0625C40.2859 43.2812 39.6562 43.9109 39.6562 44.6875C39.6562 45.4641 40.2859 46.0938 41.0625 46.0938H46.6875C47.4641 46.0938 48.0938 45.4641 48.0938 44.6875V39.0625C48.0938 38.2859 47.4641 37.6562 46.6875 37.6562Z" fill="white"/>
<path d="M41.0625 6.71875H45.2812V10.9375C45.2812 11.7141 45.9109 12.3438 46.6875 12.3438C47.4641 12.3438 48.0938 11.7141 48.0938 10.9375V5.3125C48.0938 4.53587 47.4641 3.90625 46.6875 3.90625H41.0625C40.2859 3.90625 39.6562 4.53587 39.6562 5.3125C39.6562 6.08913 40.2859 6.71875 41.0625 6.71875Z" fill="white"/>
</g>
<defs>
<clipPath id="clip0_1_107">
<rect width="48" height="48" fill="white" transform="translate(3 1)"/>
</clipPath>
</defs>
</svg>
