<svg width="18" height="18" viewBox="0 0 18 18" fill="none" xmlns="http://www.w3.org/2000/svg">
<g clip-path="url(#clip0_8_398)">
<path d="M18.0003 8.95008C17.9317 9.2205 17.7538 9.4142 17.5616 9.60522C16.2739 10.8871 14.9849 12.1682 13.7091 13.4616C13.1434 14.035 12.4278 13.6461 12.2851 13.1183C12.2027 12.8122 12.2928 12.5537 12.5106 12.3339C12.8025 12.0397 13.0966 11.7478 13.3896 11.4548C13.9307 10.9139 14.4722 10.3735 15.0133 9.83267C15.0566 9.78933 15.0969 9.74253 15.1732 9.65968C15.0505 9.65968 14.9711 9.65968 14.8921 9.65968C10.248 9.65968 5.60393 9.66007 0.960214 9.65776C0.815253 9.65776 0.664157 9.64933 0.526483 9.60905C0.177121 9.50664 -0.0257466 9.16872 0.00263187 8.77326C0.0302434 8.39084 0.292553 8.09281 0.661089 8.03719C0.780355 8.01916 0.90269 8.01724 1.02349 8.01724C5.64841 8.01648 10.2733 8.01648 14.8983 8.01648C14.9788 8.01648 15.0593 8.01648 15.1399 8.01648C15.1606 7.98809 15.1813 7.95933 15.2024 7.93094C15.1402 7.89872 15.0655 7.87954 15.0183 7.83275C14.1938 7.01652 13.3739 6.19491 12.549 5.37907C12.3243 5.1566 12.2092 4.90037 12.2733 4.587C12.4021 3.95795 13.1637 3.71055 13.635 4.14858C13.9618 4.45237 14.2697 4.7761 14.5853 5.09139C15.577 6.0833 16.5668 7.07712 17.562 8.06557C17.7545 8.25659 17.9321 8.45029 18.0003 8.72071C18.0003 8.79742 18.0003 8.87375 18.0003 8.95008Z" fill="#3C5264"/>
</g>
<defs>
<clipPath id="clip0_8_398">
<rect width="18" height="18" fill="white"/>
</clipPath>
</defs>
</svg>
