<svg width="52" height="52" viewBox="0 0 52 52" fill="none" xmlns="http://www.w3.org/2000/svg">
<g clip-path="url(#clip0_1_77)">
<path d="M15.2736 32.1177H6.29577C6.72279 30.5105 7.8157 29.1449 9.35541 28.3749L12.338 26.8837C14.1487 25.9783 15.2735 24.1584 15.2735 22.1339C15.2735 19.2058 12.8913 16.8236 9.9632 16.8236H8.34865C5.42054 16.8236 3.03833 19.2058 3.03833 22.1339V22.9413H6.09715V22.1339C6.09715 20.8925 7.10718 19.8824 8.34865 19.8824H9.9633C11.2048 19.8824 12.2148 20.8925 12.2148 22.1339C12.2148 22.9922 11.7379 23.7639 10.9702 24.1478L7.98751 25.639C4.9347 27.1655 3.03833 30.234 3.03833 33.6472V35.1766H15.2736V32.1177Z" fill="white"/>
<path d="M25.9795 24.4707H23.8717C22.504 24.4707 21.3913 23.358 21.3913 21.9903V16.8236H18.3325V21.9903C18.3325 25.0446 20.8174 27.5295 23.8717 27.5295H25.9795V35.1766H29.0384V16.8236H25.9795V24.4707Z" fill="white"/>
<path d="M43.2432 35.1229L48.9617 16.8236H37.1952V19.8824H44.8011L40.3235 34.2106L43.2432 35.1229Z" fill="white"/>
<path d="M32.0972 24.4706H36.6855V27.5295H32.0972V24.4706Z" fill="white"/>
<path d="M24.4501 0H27.5089V6.11765H24.4501V0Z" fill="white"/>
<path d="M17.5108 3.35239L20.4657 2.56015L21.522 6.50001L18.5672 7.29225L17.5108 3.35239Z" fill="white"/>
<path d="M11.1449 6.42352L13.7938 4.89411L15.8331 8.42612L13.1841 9.95553L11.1449 6.42352Z" fill="white"/>
<path d="M5.79056 11.0342L7.95315 8.87159L10.8366 11.755L8.67401 13.9176L5.79056 11.0342Z" fill="white"/>
<path d="M30.4464 6.50223L31.5027 2.56236L34.4575 3.3546L33.4012 7.29446L30.4464 6.50223Z" fill="white"/>
<path d="M36.1252 8.42737L38.1645 4.89536L40.8134 6.42477L38.7741 9.95678L36.1252 8.42737Z" fill="white"/>
<path d="M41.1143 11.7589L43.9978 8.87549L46.1604 11.0381L43.2769 13.9215L41.1143 11.7589Z" fill="white"/>
<path d="M24.4501 45.8824H27.5089V52.0001H24.4501V45.8824Z" fill="white"/>
<path d="M17.5156 48.6527L18.572 44.7129L21.5268 45.5051L20.4704 49.4449L17.5156 48.6527Z" fill="white"/>
<path d="M11.144 45.5761L13.1833 42.0441L15.8323 43.5735L13.793 47.1056L11.144 45.5761Z" fill="white"/>
<path d="M5.78741 40.9619L8.67087 38.0785L10.8335 40.2411L7.95 43.1245L5.78741 40.9619Z" fill="white"/>
<path d="M30.4506 45.4939L33.4054 44.7017L34.4618 48.6415L31.5069 49.4338L30.4506 45.4939Z" fill="white"/>
<path d="M36.1248 43.5719L38.7737 42.0425L40.813 45.5745L38.164 47.1039L36.1248 43.5719Z" fill="white"/>
<path d="M41.1113 40.2448L43.2739 38.0822L46.1573 40.9656L43.9947 43.1282L41.1113 40.2448Z" fill="white"/>
</g>
<defs>
<clipPath id="clip0_1_77">
<rect width="52" height="52" fill="white"/>
</clipPath>
</defs>
</svg>
